<?xml version="1.0" encoding="utf-8"?>
<!-- Generator: Adobe Illustrator 23.0.2, SVG Export Plug-In . SVG Version: 6.00 Build 0)  -->
<svg version="1.1" id="Layer_1" xmlns="http://www.w3.org/2000/svg" xmlns:xlink="http://www.w3.org/1999/xlink" x="0px" y="0px"
	 viewBox="28.8 34.3 57.7 68.6" style="enable-background:new 28.8 34.3 57.7 68.6;fill:#826550" xml:space="preserve">
<path d="M80.4,56.5c0.1-1.7,0.5-3.5,0.7-5.4c0.7-5.4,1.6-11.7-0.1-16.8c-0.1,0-0.2,0-0.2,0c-1.3,3.7-1.3,8.3-2.2,12.4
	c-0.7,3-1.8,5.7-3.2,7.6c-0.5,0.7-1.1,1.5-1.9,1.8c-0.7-3.9-4.3-4.9-7.7-6.4c-2.1-0.9-4-2-6.1-2.2c-0.8-0.1-1.5,0.2-2,0.2
	c-0.5,0-1.2-0.3-2-0.2c-2.1,0.1-4,1.3-6.1,2.2c-3.4,1.4-7,2.4-7.7,6.4c-0.9-0.3-1.4-1.1-1.9-1.8c-1.5-1.9-2.6-4.6-3.2-7.6
	c-0.9-4-0.8-8.6-2.2-12.4c-0.1,0-0.2,0-0.2,0c-1.7,5.1-0.8,11.4-0.1,16.8c0.2,1.9,0.6,3.7,0.7,5.4c0.8,11.1-7,23.1-6,28.9
	c0.9,7.5,8.4,9.4,14.2,12.4c4.3,2.2,8.3,5,13.3,5.2c0.4,0,0.9,0,1.3,0c0,0,0,0,0,0c0.4,0,0.9,0,1.3,0c5-0.2,9-2.9,13.3-5.2
	c5.8-3,13.2-4.8,14.2-12.4C87.4,79.6,79.6,67.6,80.4,56.5z M57.7,60.3L57.7,60.3L57.7,60.3L57.7,60.3L57.7,60.3
	c-2.5,0-5.1-0.1-7.2-0.5c0.7-2.1,4-1.6,7.1-1.6c0,0,0.1,0,0.1,0c0,0,0.1,0,0.1,0c3,0,6.4-0.5,7.1,1.6C62.7,60.2,60.2,60.3,57.7,60.3
	z"/>
</svg>
