<?xml version="1.0" encoding="utf-8"?>
<!-- Generator: Adobe Illustrator 23.0.2, SVG Export Plug-In . SVG Version: 6.00 Build 0)  -->
<svg version="1.1" id="Layer_1" xmlns="http://www.w3.org/2000/svg" xmlns:xlink="http://www.w3.org/1999/xlink" x="0px" y="0px"
	 viewBox="22.9 52.4 44.7 104.8" style="enable-background:new 22.9 52.4 44.7 104.8;fill:#826550" xml:space="preserve">
<path d="M66.3,52.4c0,0-0.1,0-0.1,0c-2.8,21.5-5.4,22.6-7,22.7c-1.4,0.1-3.6-1.8-4.9-2.5c-1.5-0.9-4.1-2.5-9.1-2.5s-7.6,1.7-9.1,2.5
	c-1.3,0.7-3.5,2.6-4.9,2.5c-1.6-0.1-4.1-1.2-7-22.7c0,0-0.1,0-0.1,0c-2.1,12.2-1.6,50.2,1.2,63.6c2.6,18.5,10.1,35.1,13.4,39.6
	c0.7,1,3.5,1.6,6.4,1.6c2.9,0,5.7-0.5,6.4-1.6c3.3-4.5,10.8-21.1,13.4-39.6C67.9,102.6,68.4,64.6,66.3,52.4z M45.2,80.5
	c-3.4,0-6.7,0.2-10.1,0.5c1.1-1.8,9-3.2,10.1-3.4c1.1,0.2,9,1.7,10.1,3.4C51.9,80.7,48.6,80.5,45.2,80.5z"/>
</svg>
