<?xml version="1.0" encoding="utf-8"?>
<!-- Generator: Adobe Illustrator 23.0.2, SVG Export Plug-In . SVG Version: 6.00 Build 0)  -->
<svg version="1.1" id="Layer_1" xmlns="http://www.w3.org/2000/svg" xmlns:xlink="http://www.w3.org/1999/xlink" x="0px" y="0px"
	 viewBox="28.5 48.8 57 97.5" style="enable-background:new 28.5 48.8 57 97.5;fill:#826550" xml:space="preserve">
<path d="M79.6,64.1c-0.4-5.5-0.6-10.9-2.5-15.2c-0.8,0-1.5,7.3-2.3,10.9c-1.5,7.1-3.7,8.3-4.4,8.3c-0.9-3.9-4.4-4.2-7.8-5.9
	c-1.2-0.6-2.3-1.1-3.6-1.2c-0.7-0.1-1.3,0.1-2,0.1c-0.7,0-1.3-0.2-2-0.1c-1.3,0.1-2.4,0.6-3.6,1.2c-3.4,1.6-6.9,2-7.8,5.9
	c-0.7,0-3-1.1-4.4-8.3c-0.8-3.6-1.5-10.9-2.3-10.9c-1.9,4.4-2.1,9.8-2.5,15.2c-0.9,23.5-5.9,36.3-5.9,47.2
	c0,26.1,11.7,35.3,28.5,35.3c16.8,0,28.5-9.2,28.5-35.3C85.5,100.4,80.5,87.6,79.6,64.1z M62.9,73.8c-2.8,1.2-5.4-0.7-5.9-0.7
	c0,0,0,0-0.1,0c0,0,0,0-0.1,0c-0.5,0-3.1,1.9-5.9,0.7c-0.8-3.6,2.4-4,5.9-3.9C60.5,69.8,63.7,70.2,62.9,73.8z"/>
</svg>
