<?xml version="1.0" encoding="utf-8"?>
<!-- Generator: Adobe Illustrator 23.0.2, SVG Export Plug-In . SVG Version: 6.00 Build 0)  -->
<svg version="1.1" id="Layer_1" xmlns="http://www.w3.org/2000/svg" xmlns:xlink="http://www.w3.org/1999/xlink" x="0px" y="0px"
	 viewBox="31.2 39.2 62.4 78.5" style="enable-background:new 31.2 39.2 62.4 78.5;fill:#826550" xml:space="preserve">
<path d="M93.6,81.2c0-5.2-2.4-7.8-3.6-10c-0.9-1.6-4-10.8-4.2-17.6c-0.1-4.9-1.7-12.4-2.9-14.4c-0.9,0-1.5,7.8-2.3,11.6
	c-1.4,7-3.8,8.9-4.4,9c-0.8-2.8-4.1-7.4-13.7-7.7c0,0-0.1,0-0.1,0c0,0-0.1,0-0.1,0c-9.6,0.4-12.9,4.9-13.7,7.7c-0.7-0.1-3-2-4.4-9
	c-0.8-3.9-1.4-11.6-2.3-11.6c-1.2,2-2.8,9.5-2.9,14.4c-0.2,6.9-3.3,16-4.2,17.6c-1.2,2.2-3.6,4.7-3.6,10c0,3.7,5.2,7.2,5.6,11.4
	c0.1,1.2,0,2.3,0.1,3.4c2,17.5,17.9,21.7,25.4,21.7l0,0l0,0c7.6,0,23.4-4.2,25.4-21.7c0.2-1,0-2.1,0.1-3.4
	C88.4,88.4,93.6,85,93.6,81.2z M64.4,66c-0.7-0.1-3.4-0.1-4.1,0c-1.7,0.3-5.8,1-5.8-1.1c0-1.1,6.7-2.3,7.8-2.3
	c1.1,0,7.8,1.2,7.8,2.3C70.2,67,66.2,66.3,64.4,66z"/>
</svg>
