<svg xmlns="http://www.w3.org/2000/svg" viewBox="-49 157 512 480"><switch><g><path d="M414 436.938a9.962 9.962 0 0 0 8.99-9.938c0-5.53-4.452-9.99-9.99-9.99a9.969 9.969 0 0 0-9.99 9.99 9.97 9.97 0 0 0 10.99 9.938zM207 377.01a9.969 9.969 0 0 0-9.99 9.99 9.962 9.962 0 0 0 8.99 9.938A9.97 9.97 0 0 0 216.99 387c0-5.53-4.452-9.99-9.99-9.99z" fill="#fff"/><path d="M337 467c0-71.682-58.317-130-130-130S77 395.318 77 467s58.317 130 130 130 130-58.318 130-130zM207 577c-60.654 0-110-49.346-110-110s49.346-110 110-110 110 49.346 110 110-49.346 110-110 110z" fill="#ea5332"/><path d="M250.574 388.267c-4.829-2.682-10.916-.94-13.597 3.888-2.682 4.828-.94 10.916 3.888 13.597C263.154 418.129 277 441.598 277 467c0 5.523 4.478 10 10 10s10-4.477 10-10c0-32.663-17.789-62.832-46.426-78.733z" fill="#fff"/><path fill="#ea5332" d="M-29 396.9h81.051L62.757 377H-29zM443 377h-91.757l10.706 20H443zm0 160h-81.051l-5.221 9.753L351.243 557H443v-20zm-472 20h91.757l-10.706-20H-29z"/><path d="M433 317h-10v-30c0-5.523-4.478-10-10-10h-40c-5.522 0-10 4.477-10 10v30h-75.981A169.537 169.537 0 0 0 257 304.497V277h30c16.542 0 30-13.458 30-30v-60c0-16.542-13.458-30-30-30H127c-16.542 0-30 13.458-30 30v60c0 16.542 13.458 30 30 30h30v27.497A169.608 169.608 0 0 0 126.98 317H51v-30c0-5.523-4.478-10-10-10H1c-5.522 0-10 4.477-10 10v30h-10c-16.542 0-30 13.458-30 30v240c0 16.542 13.458 30 30 30h145.981c24.495 13.079 52.096 20 80.019 20s55.523-6.92 80.019-20H433c16.542 0 30-13.458 30-30V347c0-16.542-13.458-30-30-30zm-50-20h20v20h-20v-20zm-266-50v-60c0-5.514 4.486-10 10-10h160c5.514 0 10 4.486 10 10v60c0 5.514-4.486 10-10 10H127c-5.514 0-10-4.486-10-10zm120 30v22.662c-9.863-1.756-19.906-2.662-30-2.662s-20.137.906-30 2.661V277h60zM11 297h20v20H11v-20zm51.757 260a170.555 170.555 0 0 0 34.714 40H-19c-5.514 0-10-4.486-10-10V347c0-5.514 4.486-10.1 10-10.1H97.471a169.272 169.272 0 0 0-18.265 17.943c-1.562 1.785-8.278 9.528-15.42 20.531-3.958 6.098-6.433 10.711-7.251 12.257 0 0-2.871 5.426-5.379 11.286C36.995 432 37 467 37 467c0 24.227 5.17 48.123 15.051 70l10.706 20zM57 467c0-82.465 66.789-150 150-150 82.847 0 150 67.172 150 150 0 83.086-67.398 150-150 150-82.904 0-150-67.223-150-150zm304.949 70C371.83 515.122 377 491.226 377 467s-5.17-48.122-15.051-70c-1.974-3.688-2.948-6.376-4.922-10.063-1.595-2.979-4.189-6.958-5.784-9.937a170.37 170.37 0 0 0-15.819-21.385A171.031 171.031 0 0 0 316.529 337H433c5.514 0 10 4.486 10 10v240c0 5.514-4.486 10-10 10H316.529a170.55 170.55 0 0 0 34.714-40l10.706-20z" fill="#fff"/><path d="M267 237c5.522 0 10-4.477 10-10v-20c0-5.523-4.478-10-10-10s-10 4.477-10 10v20c0 5.523 4.478 10 10 10z" fill="#fff"/></g></switch></svg>