<svg xmlns="http://www.w3.org/2000/svg" viewBox="-49 141 512 512"><switch><g><path d="M379 141c-46.318 0-84 37.683-84 84s37.682 84 84 84 84-37.683 84-84-37.682-84-84-84zm0 148c-35.29 0-64-28.71-64-64s28.71-64 64-64 64 28.71 64 64-28.71 64-64 64z" fill="#fff"/><path d="M252.93 291.93c-1.86 1.86-2.93 4.44-2.93 7.07s1.07 5.21 2.93 7.069c1.86 1.86 4.44 2.931 7.07 2.931s5.21-1.07 7.07-2.931c1.86-1.859 2.93-4.439 2.93-7.069s-1.07-5.21-2.93-7.07S262.63 289 260 289s-5.21 1.069-7.07 2.93z" fill="#ea5332"/><path d="M361 348.167c0-5.522-4.477-10-10-10s-10 4.478-10 10V393H89v-84h118c5.523 0 10-4.478 10-10s-4.477-10-10-10H79c-5.523 0-10 4.478-10 10v104c0 5.522 4.477 10 10 10h272c5.523 0 10-4.478 10-10v-54.833z" fill="#ea5332"/><path d="M351 497H239.232c-5.523 0-10 4.478-10 10s4.477 10 10 10H351c5.523 0 10-4.478 10-10s-4.477-10-10-10zm0-52H239.232c-5.523 0-10 4.478-10 10s4.477 10 10 10H351c5.523 0 10-4.478 10-10s-4.477-10-10-10zm0 104H239.232c-5.523 0-10 4.478-10 10s4.477 10 10 10H351c5.523 0 10-4.478 10-10s-4.477-10-10-10z" fill="#fff"/><path d="M79 549c-5.523 0-10 4.478-10 10s4.477 10 10 10h111.768c5.523 0 10-4.478 10-10V455c0-5.522-4.477-10-10-10h-55.884c-5.523 0-10 4.478-10 10s4.477 10 10 10h45.884v84H79z" fill="#ea5332"/><path d="M399 342.5c-5.523 0-10 4.478-10 10v86.307c0 5.522 4.477 10 10 10s10-4.478 10-10V352.5c0-5.522-4.477-10-10-10zm0 126.5c-2.63 0-5.21 1.069-7.07 2.93-1.86 1.86-2.93 4.44-2.93 7.07s1.07 5.21 2.93 7.069c1.86 1.86 4.44 2.931 7.07 2.931s5.21-1.07 7.07-2.931c1.86-1.859 2.93-4.439 2.93-7.069s-1.07-5.21-2.93-7.07S401.63 469 399 469zm0 44.689c-5.523 0-10 4.478-10 10V623c0 5.514-4.486 10-10 10H51c-5.514 0-10-4.486-10-10v-59.107l60.504-47.038c10.875-8.453 15.902-22.085 13.122-35.575a35.93 35.93 0 0 0-17.089-23.769 35.942 35.942 0 0 0-29.104-3.132l-40.511 13.106c-5.255 1.7-8.136 7.338-6.437 12.593 1.7 5.255 7.339 8.137 12.593 6.437l40.511-13.106c4.354-1.408 8.929-.916 12.884 1.387s6.642 6.039 7.565 10.521c1.23 5.972-.995 12.006-5.809 15.749l-64.367 50.04A9.996 9.996 0 0 0 21 559v67.136c0 .807.098 1.05.279.897C23.256 641.674 35.826 653 51 653h328c16.542 0 30-13.458 30-30v-99.311c0-5.522-4.477-10-10-10z" fill="#fff"/><path d="M21 438.807c0 5.522 4.477 10 10 10s10-4.478 10-10V239c0-5.514 4.486-10 10-10h204.333c5.523 0 10-4.478 10-10s-4.477-10-10-10H51c-16.542 0-30 13.458-30 30v122.334l-68.351 103.739A10.01 10.01 0 0 0-49 470.575V643c0 5.522 4.477 10 10 10s10-4.478 10-10V473.573l50-75.887v41.121z" fill="#fff"/><path d="M402.756 201.773L377 227.53l-9.343-9.343c-3.905-3.904-10.237-3.904-14.142 0-3.905 3.906-3.905 10.237 0 14.143l16.414 16.413c1.953 1.952 4.512 2.929 7.071 2.929s5.119-.977 7.071-2.929l32.828-32.827c3.905-3.905 3.906-10.237 0-14.143-3.906-3.903-10.237-3.904-14.143 0z" fill="#ea5332"/></g></switch></svg>