<svg version="1.1" id="Слой_1" xmlns="http://www.w3.org/2000/svg" x="0" y="0" viewBox="0 0 409.9 410.2" xml:space="preserve"><style>.st0{fill:#fff}.st1{fill:#ea5332}</style><switch><g><path class="st0" d="M198.4 154.6c3.1 3.1 8.2 3.1 11.3 0 3.1-3.1 3.1-8.2 0-11.3-3.1-3.1-8.2-3.1-11.3 0-3.1 3.1-3.1 8.2 0 11.3zm0 0"/><path class="st1" d="M299.4 110.2c9.4 9.4 24.6 9.4 33.9 0 9.4-9.4 9.4-24.6 0-33.9-9.4-9.4-24.6-9.4-33.9 0-9.4 9.4-9.4 24.6 0 33.9zm11.3-22.6c3.1-3.1 8.2-3.1 11.3 0 3.1 3.1 3.1 8.2 0 11.3-3.1 3.1-8.2 3.1-11.3 0-3.1-3.1-3.1-8.2 0-11.3zm0 0"/><path class="st0" d="M233.8 325.7c-5.5 10.9-16.4 17.6-28.6 17.6-2.2 0-4.5-.2-6.6-.7l100.3-196.1c8.1 2.7 16.9 3.5 25.8 2.2-26.6 52.8-86.2 167.5-90.9 177zM379.9 18.3c3.1-3.1 8.2-3.1 11.3 0 3.1 3.1 3.1 8.2 0 11.3l-30.1 30.1c-1.6-2.1-3.3-4.2-5.2-6.1-1.9-1.9-3.9-3.7-6.1-5.3l30.1-30zM288 65c15.5-15.4 40.8-15.8 56.6 0 15.7 15.7 15.5 41 0 56.6-15.7 15.7-40.9 15.6-56.6 0-15.6-15.7-15.6-41 0-56.6zm-186.1 83.7c-9 4.7-17.8 9.2-25.2 12.9-21.3 10.7-31.2 35.3-24.2 57.4l-48 24.2C.6 245.2-1 250 1 253.9c2 3.9 6.8 5.5 10.7 3.5L144 190.7l15-7.6c2.2-1.1-7.8 4 21.1-10.7 3.9-2 5.5-6.8 3.5-10.8-2-3.9-6.8-5.5-10.8-3.5-13.2 6.7-95.8 48.3-105.8 53.4-3.2-14 3.4-29 16.8-35.7 9.5-4.8 124.2-64.3 177-90.9-1.3 8.7-.6 17.6 2.3 26l-33.5 18.8c-3.9 2.2-5.2 7-3.1 10.9 2.2 3.9 7.1 5.2 10.9 3.1l32.9-18.4c1.9 2.7 4 5.2 6.3 7.6 2.4 2.4 5 4.6 7.8 6.5l-57.3 112-7.7 15c-42.6 83.2-19.5 38.4-67.6 131.6-2.8 5.4 1.2 11.7 7.1 11.7 2.9 0 5.7-1.6 7.1-4.3l24.8-48.1c4.6 1.4 9.3 2.2 14.1 2.2 18.3 0 34.7-10.1 42.9-26.5 3.7-7.3 8.2-16.2 12.9-25.2l7.7-14.9 4.3-8.3c18.2-35.1 43.1-82.9 73.8-144.2 3.3-2.1 6.4-4.6 9.2-7.4 15.4-15.4 20.3-38.2 13.1-58.4L402.6 41c9.4-9.4 9.4-24.6 0-33.9-9.4-9.4-24.6-9.4-33.9 0l-33.5 33.5c-20.2-7.2-43-2.2-58.4 13.1-2.8 2.8-5.3 5.9-7.4 9.2-61.3 30.7-109.2 55.6-144.3 73.8l-8.2 4.3-15 7.7zm-18 27.1"/><path class="st1" d="M.5 291.1c9.7 27.4 25 51.8 45.6 72.4 20.6 20.6 45 36 72.4 45.6 4.2 1.5 8.7-.7 10.2-4.9s-.7-8.7-4.9-10.2c-25.2-8.9-47.5-23-66.4-41.9-18.9-18.9-33-41.2-41.9-66.4-1.5-4.2-6-6.4-10.2-4.9-4.1 1.6-6.3 6.2-4.8 10.3zm226.8-39.7l-28.9-28.9 5.7-5.7c3.1-3.1 3.1-8.2 0-11.3-3.1-3.1-8.2-3.1-11.3 0l-5.7 5.7-28.1-28.1-15 7.6 31.8 31.8-5.7 5.7c-3.1 3.1-3.1 8.2 0 11.3 3.1 3.1 8.2 3.1 11.3 0l5.7-5.7 32.5 32.5 7.7-14.9zm33.6 56.3l33.6 33.6c3.1 3.1 8.2 3.1 11.3 0 3.1-3.1 3.1-8.2 0-11.3l-37.2-37.2-7.7 14.9zM116.8 140.9l-37.2-37.2c-3.1-3.1-8.2-3.1-11.3 0-3.1 3.1-3.1 8.2 0 11.3l33.6 33.6 14.9-7.7z"/></g></switch></svg>