<svg version="1.1" id="Слой_1" xmlns="http://www.w3.org/2000/svg" x="0" y="0" viewBox="0 0 368 409.6" xml:space="preserve"><style>.st0{fill:#fff}</style><switch><g><path class="st0" d="M112 164.8c-4.4 0-8 3.6-8 8s3.6 8 8 8 8-3.6 8-8-3.6-8-8-8zm17.6-17.9c11.7-18.9 32.1-30.1 54.4-30.1 4.4 0 8-3.6 8-8s-3.6-8-8-8c-27.9 0-53.3 14.1-67.9 37.7-2.3 3.8-1.2 8.7 2.6 11 3.7 2.3 8.6 1.2 10.9-2.6zm0 0"/><path class="st0" d="M128 369.6c0 22.1 17.9 40 40 40h32c22.1 0 40-17.9 40-40v-29c0-24.8 10.1-48.6 28.6-66.9 22.8-22.7 35.4-52.8 35.4-84.9 0-66.8-54.8-121.1-122.1-120-62.7 1.1-115.5 52.9-117.8 115.5-1.2 33.2 10.9 64.5 34.2 88.3 19.2 19.5 29.7 43.7 29.7 68.1v28.9zm16-28.9c0-28.6-12.2-56.8-34.3-79.3-20.2-20.6-30.7-47.7-29.6-76.5 2-54.3 47.8-99.2 102.1-100.1 58.1-1 105.8 45.8 105.8 104 0 27.8-10.9 53.9-30.7 73.6-21.5 21.3-33.3 49.1-33.3 78.3v29c0 13.2-10.8 24-24 24h-32c-13.2 0-24-10.8-24-24v-29z"/><path d="M192 44.8V8c0-4.4-3.6-8-8-8s-8 3.6-8 8v36.8c0 4.4 3.6 8 8 8s8-3.6 8-8zm121 7c-3.1-3.1-8.2-3.1-11.3 0L279 74.5c-3.1 3.1-3.1 8.2 0 11.3 3.1 3.1 8.2 3.1 11.3 0L313 63.1c3.1-3.1 3.1-8.1 0-11.3zm-224 34c3.1-3.1 3.1-8.2 0-11.3L66.3 51.8c-3.1-3.1-8.2-3.1-11.3 0-3.1 3.1-3.1 8.2 0 11.3l22.6 22.6c3.2 3.2 8.2 3.2 11.4.1zm239 79c-4.4 0-8 3.6-8 8s3.6 8 8 8h32c4.4 0 8-3.6 8-8s-3.6-8-8-8h-32zm-320 0c-4.4 0-8 3.6-8 8s3.6 8 8 8h32c4.4 0 8-3.6 8-8s-3.6-8-8-8H8zm208 64c13.2 0 24-10.8 24-24s-10.8-24-24-24-24 10.8-24 24c0 2.8.5 5.5 1.4 8h-18.8c.9-2.5 1.4-5.2 1.4-8 0-13.2-10.8-24-24-24s-24 10.8-24 24 10.8 24 24 24h8v112h-16v16h80v-16h-16v-112h8zm0-32c4.4 0 8 3.6 8 8s-3.6 8-8 8-8-3.6-8-8 3.6-8 8-8zm-64 16c-4.4 0-8-3.6-8-8s3.6-8 8-8 8 3.6 8 8-3.6 8-8 8zm40 128h-16v-112h16v112z" fill="#ea5332"/></g></switch></svg>