<svg xmlns="http://www.w3.org/2000/svg" viewBox="-15 141 444 512"><switch><g><path d="M399 387H247c-16.542 0-30-13.458-30-30V171c0-16.542 13.458-30 30-30h152c16.542 0 30 13.458 30 30v186c0 16.542-13.458 30-30 30zM247 161c-5.514 0-10 4.486-10 10v186c0 5.514 4.486 10 10 10h152c5.514 0 10-4.486 10-10V171c0-5.514-4.486-10-10-10H247zm152 492H247c-16.542 0-30-13.458-30-30V437c0-16.542 13.458-30 30-30h152c16.542 0 30 13.458 30 30v186c0 16.542-13.458 30-30 30zM247 427c-5.514 0-10 4.486-10 10v186c0 5.514 4.486 10 10 10h152c5.514 0 10-4.486 10-10V437c0-5.514-4.486-10-10-10H247zm-80-40H15c-16.542 0-30-13.458-30-30V171c0-16.542 13.458-30 30-30h152c16.542 0 30 13.458 30 30v186c0 16.542-13.458 30-30 30zM15 161c-5.514 0-10 4.486-10 10v186c0 5.514 4.486 10 10 10h152c5.514 0 10-4.486 10-10V171c0-5.514-4.486-10-10-10H15zM-5 539.97c-2.63 0-5.21-1.07-7.07-2.93S-15 532.6-15 529.97s1.069-5.21 2.93-7.07c1.861-1.86 4.44-2.93 7.07-2.93s5.21 1.07 7.069 2.93C3.929 524.76 5 527.34 5 529.97s-1.07 5.21-2.931 7.07A10.072 10.072 0 0 1-5 539.97z" fill="#fff"/><path d="M167 653H15c-16.542 0-30-13.458-30-30v-51.667c0-5.523 4.478-10 10-10s10 4.477 10 10V623c0 5.514 4.486 10 10 10h152c5.514 0 10-4.486 10-10V437c0-5.514-4.486-10-10-10H15c-5.514 0-10 4.486-10 10v45.091c0 5.523-4.478 10-10 10s-10-4.477-10-10V437c0-16.542 13.458-30 30-30h152c16.542 0 30 13.458 30 30v186c0 16.542-13.458 30-30 30z" fill="#fff"/><path d="M147 612.938H35c-5.522 0-10-4.477-10-10V457c0-5.523 4.478-10 10-10h112c5.522 0 10 4.477 10 10v145.938c0 5.522-4.478 10-10 10zm-102-20h92V467H45v125.938zm334-60H267c-5.522 0-10-4.477-10-10V457c0-5.523 4.478-10 10-10h112c5.522 0 10 4.477 10 10v65.938c0 5.522-4.478 10-10 10zm-102-20h92V467h-92v45.938zm102 100H267c-5.522 0-10-4.477-10-10s4.478-10 10-10h112c5.522 0 10 4.477 10 10s-4.478 10-10 10zm0-40H267c-5.522 0-10-4.477-10-10s4.478-10 10-10h112c5.522 0 10 4.477 10 10s-4.478 10-10 10zM147 201H35c-5.522 0-10-4.477-10-10s4.478-10 10-10h112c5.522 0 10 4.477 10 10s-4.478 10-10 10zm0 40H35c-5.522 0-10-4.477-10-10s4.478-10 10-10h112c5.522 0 10 4.477 10 10s-4.478 10-10 10zm0 105.969H35c-5.522 0-10-4.477-10-10V271c0-5.523 4.478-10 10-10h112c5.522 0 10 4.477 10 10v65.969c0 5.523-4.478 10-10 10zm-102-20h92V281H45v45.969zm334-20H267c-5.522 0-10-4.477-10-10V191.031c0-5.523 4.478-10 10-10h112c5.522 0 10 4.477 10 10v105.938c0 5.523-4.478 10-10 10zm-102-20h92v-85.938h-92v85.938zm102 60.001c-2.63 0-5.21-1.07-7.07-2.93-1.86-1.86-2.93-4.44-2.93-7.07s1.069-5.21 2.93-7.07 4.44-2.93 7.07-2.93 5.21 1.07 7.069 2.93c1.86 1.86 2.931 4.44 2.931 7.07s-1.07 5.21-2.931 7.07a10.072 10.072 0 0 1-7.069 2.93zm-45.667-.001H267c-5.522 0-10-4.477-10-10s4.478-10 10-10h66.333c5.522 0 10 4.477 10 10s-4.478 10-10 10z" fill="#ea5332"/></g></switch></svg>