<svg xmlns="http://www.w3.org/2000/svg" viewBox="-49 141 512 512"><switch><g><path d="M453 515h-48c-5.522 0-10 4.478-10 10s4.478 10 10 10h38v60c0 20.953-17.047 38-38 38s-38-17.047-38-38V151c0-5.522-4.478-10-10-10H12.981c-5.522 0-10 4.478-10 10v47c0 5.522 4.478 10 10 10s10-4.478 10-10v-37H347v434c0 14.527 5.381 27.813 14.238 38H60.981c-20.953 0-38-17.047-38-38v-76c0-5.522-4.478-10-10-10s-10 4.478-10 10v76c0 31.981 26.019 58 58 58H405c31.981 0 58-26.019 58-58v-70c0-5.522-4.478-10-10-10z" fill="#fff"/><path d="M12.979 483c2.63 0 5.21-1.07 7.07-2.931 1.86-1.859 2.93-4.439 2.93-7.069s-1.069-5.21-2.93-7.07-4.44-2.93-7.07-2.93-5.21 1.069-7.069 2.93c-1.86 1.86-2.931 4.44-2.931 7.07s1.07 5.21 2.931 7.069A10.09 10.09 0 0 0 12.979 483zm207.819-60.203c14.668-11.887 26.016-23.537 32.952-31.218C268 375.801 268 373.317 268 370.442c0-3.005 0-5.176-14.26-20.916-6.983-7.708-18.364-19.382-32.931-31.224-25.7-20.893-65.874-45.799-111.31-45.799-45.499 0-85.638 24.788-111.298 45.583-14.668 11.888-26.016 23.538-32.952 31.219C-49 365.084-49 367.567-49 370.442c0 3.004 0 5.175 14.26 20.916 6.983 7.708 18.365 19.381 32.931 31.223 25.7 20.893 65.874 45.799 111.31 45.799 45.498 0 85.637-24.788 111.297-45.583zm-247.261-52.498c6.448-7.879 20.541-23.562 40.21-39.031 22.485-17.684 57.35-38.764 95.753-38.764 65.986 0 121.056 60.146 135.963 78.082-6.448 7.879-20.541 23.562-40.21 39.03-22.485 17.684-57.35 38.764-95.753 38.764-65.982 0-121.055-60.147-135.963-78.081z" fill="#fff"/><path d="M167.763 370.442c0-15.306-5.942-29.244-15.629-39.652a32.01 32.01 0 0 0-1.436-1.546c-.501-.5-1.019-.973-1.543-1.434-10.408-9.688-24.347-15.631-39.655-15.631-32.126 0-58.263 26.137-58.263 58.263s26.137 58.262 58.263 58.262 58.263-26.136 58.263-58.262zm-31.207-10.543c-4.553 4.553-11.961 4.553-16.514 0-4.553-4.553-4.553-11.96 0-16.513a11.643 11.643 0 0 1 8.257-3.415c2.781 0 5.553.998 7.76 2.966.321.31.636.625.946.946 4.085 4.58 3.944 11.623-.449 16.016zm-65.319 10.543c0-18.833 13.681-34.52 31.623-37.674-9.208 12.393-8.197 30.038 3.039 41.274 6.176 6.175 14.287 9.263 22.399 9.263a31.617 31.617 0 0 0 18.875-6.224c-3.153 17.943-18.841 31.624-37.674 31.624-21.097-.001-38.262-17.165-38.262-38.263z" fill="#fff"/><path d="M119.49 236.312V191c0-5.522-4.478-10-10-10s-10 4.478-10 10v45.312c0 5.522 4.478 10 10 10s10-4.478 10-10zM60.951 263.8a9.97 9.97 0 0 0 7.074-2.932c3.903-3.907 3.9-10.239-.006-14.143l-18.222-18.206c-3.909-3.904-10.239-3.9-14.143.006-3.903 3.907-3.9 10.239.006 14.143l18.223 18.207a9.973 9.973 0 0 0 7.068 2.925zm103.022-1.732l19.373-19.389c3.903-3.907 3.9-10.238-.006-14.143-3.907-3.902-10.239-3.9-14.143.006l-19.373 19.389c-3.903 3.907-3.9 10.238.006 14.143a9.972 9.972 0 0 0 7.068 2.926 9.973 9.973 0 0 0 7.075-2.932zM296.991 499h-224c-5.522 0-10 4.478-10 10v80c0 5.522 4.478 10 10 10h224c5.522 0 10-4.478 10-10v-80c0-5.522-4.477-10-10-10zm-10 80h-204v-60h204v60zm10-128H235c-5.522 0-10 4.478-10 10s4.478 10 10 10h61.991c5.522 0 10-4.478 10-10s-4.477-10-10-10zm0-48h-19.496c-5.522 0-10 4.478-10 10s4.478 10 10 10h19.496c5.522 0 10-4.478 10-10s-4.477-10-10-10z" fill="#ea5332"/><path d="M254.5 263h42.491c5.522 0 10-4.478 10-10s-4.478-10-10-10H254.5c-5.522 0-10 4.478-10 10s4.478 10 10 10zm0-48h42.491c5.522 0 10-4.478 10-10s-4.478-10-10-10H254.5c-5.522 0-10 4.478-10 10s4.478 10 10 10zm0 96h42.491c5.522 0 10-4.478 10-10s-4.478-10-10-10H254.5c-5.522 0-10 4.478-10 10s4.478 10 10 10z" fill="#fff"/></g></switch></svg>