<svg height="512pt" viewBox="0 0 512 512" width="512pt" xmlns="http://www.w3.org/2000/svg"><path d="M256 100c34.844 0 70-9.277 70-30s-35.156-30-70-30-70 9.277-70 30 35.156 30 70 30zm0-40c27.648 0 44.406 6.305 49.094 10-4.688 3.695-21.446 10-49.094 10s-44.406-6.305-49.094-10c4.688-3.695 21.446-10 49.094-10zm-60 123c-5.523 0-10 4.477-10 10v20c0 5.523 4.477 10 10 10s10-4.477 10-10v-20c0-5.523-4.477-10-10-10zM70 429c5.523 0 10-4.477 10-10v-20c0-5.523-4.477-10-10-10s-10 4.477-10 10v20c0 5.523 4.477 10 10 10zm0 0"/><path d="M386 206.219V70c0-50.184-79.527-70-130-70-50.875 0-130 19.984-130 70v136.219C76.332 208.203 0 229.207 0 276v83c0 5.523 4.477 10 10 10s10-4.477 10-10v-45.656c11.469 9.629 25.945 16.484 40 21.289V359c0 5.523 4.477 10 10 10s10-4.477 10-10v-18.734c16.574 3.746 34.559 5.734 53 5.734 46.746 0 89.426-12.523 113-32.191V442c0 34.273-74.207 50-113 50-18.387 0-36.547-2.172-53-6.313V459c0-5.523-4.477-10-10-10s-10 4.477-10 10v20.332C35.324 469.641 20 455.629 20 442v-3c0-5.523-4.477-10-10-10s-10 4.477-10 10v3c0 50.238 80.164 70 133 70 40.91 0 98.566-11.594 123.012-42.91C280.828 500.895 337.872 512 379 512c50.754 0 133-20.105 133-70V276c0-46.746-76.219-67.79-126-69.781zm-12.008 59.812c1.883-.02 3.82-.031 5.008-.031 26.363 0 45.586 5.848 51.648 10-6.062 4.152-25.289 10-51.648 10-9.984 0-19.277-.816-27.23-2.094 9.097-5.254 16.582-11.261 22.222-17.875zM256 20c41.57 0 110 16.477 110 50 0 35.09-72.34 50-110 50-59.719 0-110-23.602-110-50 0-35.09 72.34-50 110-50zM138.008 266.031c5.64 6.614 13.125 12.621 22.222 17.875C152.277 285.184 142.984 286 133 286c-26.363 0-45.586-5.848-51.648-10 6.062-4.152 25.289-10 51.648-10 1.188 0 3.125.012 5.008.031zM133 326c-41.523 0-113-16.813-113-50 0-32.84 73.164-48.363 106-49.773V236c0 3.414.426 6.785 1.266 10.102C101.164 246.988 60 253.969 60 276c0 23.73 47.75 30 73 30 22.328 0 43.688-3.68 56.46-9.555 11.849 3.707 24.017 6.164 35.954 7.66C204.281 317.34 169.383 326 133 326zm123-40c-16.426 0-33.652-1.773-50-5.738V253c0-5.523-4.477-10-10-10s-10 4.477-10 10v21.05c-16.973-6.6-40-20.077-40-38.05V108.035c10.012 8.508 23.535 15.778 40 21.285V153c0 5.523 4.477 10 10 10s10-4.477 10-10v-18.207c15.719 3.418 32.758 5.207 50 5.207 36.797 0 82.488-8.648 110-32.004V236c0 19.527-26.922 33.754-45.8 40.172C300.07 283.016 277.347 286 256 286zm236 156c0 34.273-74.207 50-113 50-18.387 0-36.547-2.172-53-6.313V459c0-5.523-4.477-10-10-10s-10 4.477-10 10v20.332c-24.676-9.691-40-23.703-40-37.332V313.809c10.176 8.492 23.91 15.644 40 21.039V359c0 5.523 4.477 10 10 10s10-4.477 10-10v-18.637c16.39 3.64 34.367 5.637 53 5.637 37.527 0 84.832-9.008 113-32.656zM379 326c-36.39 0-71.297-8.664-92.426-21.902 12.653-1.594 24.79-4.168 35.957-7.657C335.305 302.316 356.664 306 379 306c25.25 0 73-6.27 73-30 0-22.031-41.164-29.012-67.266-29.898A41.02 41.02 0 0 0 386 236v-9.773c32.813 1.41 106 16.933 106 49.773 0 34.273-74.207 50-113 50zm0 0"/><path d="M316 389c-5.523 0-10 4.477-10 10v20c0 5.523 4.477 10 10 10s10-4.477 10-10v-20c0-5.523-4.477-10-10-10zM20 399c0 5.523-4.477 10-10 10s-10-4.477-10-10 4.477-10 10-10 10 4.477 10 10zm0 0"/></svg>