<svg xmlns="http://www.w3.org/2000/svg" viewBox="0 0 512 512"><path d="M448 149.333c12.354 0 21.333-13.458 21.333-32s-8.979-32-21.333-32-21.333 13.458-21.333 32 8.979 32 21.333 32z"/><path d="M477.168 202.667C497.927 186.969 512 155.219 512 117.333c0-53.833-28.104-96-64-96H64c-35.896 0-64 42.167-64 96 0 37.885 14.073 69.635 34.832 85.333C14.073 218.365 0 250.115 0 288c0 41.633 17.26 77.164 42.667 90.354v69.677c0 23.51 19.146 42.635 42.667 42.635h160a10.66 10.66 0 0 0 7.542-3.125l85.333-85.333c2-2 3.125-4.708 3.125-7.542V384H448c35.896 0 64-42.167 64-96 0-37.885-14.073-69.635-34.832-85.333zM448 42.667c23.125 0 42.667 34.198 42.667 74.667S471.125 192 448 192s-42.667-34.198-42.667-74.667S424.875 42.667 448 42.667zM21.333 117.333c0-40.469 19.542-74.667 42.667-74.667h343.796C393.311 60.124 384 86.668 384 117.333s9.311 57.21 23.796 74.667H64c-23.125 0-42.667-34.198-42.667-74.667zm21.334 234.698v.195C29.892 338.923 21.333 314.509 21.333 288c0-40.469 19.542-74.667 42.667-74.667h11.133c-13.538 22.397-32.466 66.512-32.466 138.698zM256 454.25v-27.583c0-11.76 9.563-21.333 21.333-21.333h27.583L256 454.25zM320 352v32h-42.667c-23.521 0-42.667 19.135-42.667 42.667v42.667H85.333c-11.771 0-21.333-9.552-21.333-21.302v-96c0-85.042 28.171-127.522 36.943-138.698h247.888C335.315 234.021 320 274.422 320 352zm21.333 10.658V352c0-103.363 28.44-133.021 35.277-138.667h31.185C393.311 230.79 384 257.335 384 288c0 30.663 9.311 57.207 23.793 74.663l-66.46-.005zm106.667.009c-23.125 0-42.667-34.198-42.667-74.667s19.542-74.667 42.667-74.667 42.667 34.198 42.667 74.667-19.542 74.667-42.667 74.667z"/><path d="M448 256c-12.354 0-21.333 13.458-21.333 32s8.979 32 21.333 32 21.333-13.458 21.333-32-8.979-32-21.333-32z"/></svg>